<svg xmlns="http://www.w3.org/2000/svg" viewBox="0 0 238.13 407.76"><defs><style>.cls-1{isolation:isolate;}.cls-2,.cls-3{fill:none;stroke-miterlimit:10;}.cls-2{stroke:#b2b2b2;}.cls-3{stroke:#9b9b9b;}.cls-4{fill:#565656;}.cls-5,.cls-8{mix-blend-mode:multiply;}.cls-6{fill:#bcbcc2;}.cls-7{fill:#b2b2b2;}.cls-8{fill:#a9a9b1;}</style></defs><g class="cls-1"><g id="OBJECTS"><path class="cls-2" d="M149.84,99.37a2.12,2.12,0,0,0-2.28-1.62,77.84,77.84,0,0,0,1.87-15.07c-.12-10-6.14-23-6.56-23.75s-11.56-3.16-12.41-3.67,3.93-2.65,3.93-2.65c-12.41-5.66-32-6.21-40.55-.55S78.53,72.88,78.53,72.88s-.1,9.53.65,20.78C77.52,91.37,75.08,89,72.6,90c-4.41,1.79-4.41,18.48,2.76,20.41a7.57,7.57,0,0,0,5.57-.29,61.11,61.11,0,0,0,3.39,13.39,63.3,63.3,0,0,0,2.87,6c-.23,4.22-.56,10.13-.93,15.92-.26,4-.56,7-.83,9.15,2,2.39,7.56,8.88,20.89,8,12.09-.78,18.14-6.54,20.68-9.39l-2.67-2.82.84-7.25.25-2.28c4.73-2.44,8.35-6.49,11.45-11.43a64,64,0,0,0,5.38-12.21,5.66,5.66,0,0,0,3.18-2.28C148.32,111.09,151.08,102.68,149.84,99.37Z"/><path class="cls-3" d="M163.88,407.75H54.1l2.6-55.5s49.35,10.33,106.61-3.44c0,0,.54,2.61,1.4,22.51A331.49,331.49,0,0,1,163.88,407.75Z"/><path class="cls-4" d="M107.79,90.49A3.58,3.58,0,0,0,106,88.6a3.44,3.44,0,0,0-4.59,2.2c-.79,2.11-.68,5.37,1.9,6.42a3.25,3.25,0,0,0,2.43.06,3.82,3.82,0,0,0,1.82-1.73A5.9,5.9,0,0,0,107.79,90.49Z"/><path class="cls-4" d="M134.6,94.12a3.41,3.41,0,0,0-1.79-1.83,3.35,3.35,0,0,0-4.47,2.13c-.76,2.06-.66,5.23,1.85,6.25a3.14,3.14,0,0,0,2.37.06,3.7,3.7,0,0,0,1.77-1.68A5.72,5.72,0,0,0,134.6,94.12Z"/><path class="cls-4" d="M98.41,82.14a3,3,0,0,0,1.62-.55c.4-.23.83-.44,1.23-.68a12.63,12.63,0,0,1,1.25-.68l.38-.18c.15-.07.18-.07,0,0l.61-.26c-.25.11-.06,0,.08,0a15.27,15.27,0,0,1,2.74-.77l.33,0c.29,0-.31,0,0,0l.75-.06a3.77,3.77,0,0,0,2.07-.42,1.82,1.82,0,0,0,0-3.08c-1-.76-2.86-.32-4-.13a14,14,0,0,0-3,.89,13.52,13.52,0,0,0-3,1.66c-.9.67-2.32,1.89-2.24,3.14a1.25,1.25,0,0,0,1.2,1.2Z"/><path class="cls-4" d="M129.29,87.27c.69.26,1.41.44,2.12.66.36.11.71.26,1.06.39s-.39-.18-.14-.06l.24.11a5.28,5.28,0,0,1,.53.27A19.84,19.84,0,0,1,135,89.81c.23.15-.45-.37-.09-.07l.2.17c.25.21.49.43.76.62a3.07,3.07,0,0,0,1.81.64,2,2,0,0,0,1.88-1.43,3,3,0,0,0-.66-2.47A6.8,6.8,0,0,0,137.47,86a10.26,10.26,0,0,0-2.61-1.4,8.06,8.06,0,0,0-5.57-.33,1.58,1.58,0,0,0-1.13,1.49,1.6,1.6,0,0,0,1.13,1.48Z"/><path class="cls-4" d="M118.18,88.84c-.7,1.38-.65,3.2-.78,4.72-.16,1.79-.25,3.57-.29,5.37,0,1.48-.26,3.17.44,4.53a5.55,5.55,0,0,0,2.72,2.38c1.6.75,7.4,2.74,4.37,5.21a7.84,7.84,0,0,1-4.24,1.38,16.72,16.72,0,0,1-2.74,0,6.24,6.24,0,0,0-2.47,0,.76.76,0,0,0-.33,1.25c1.26,1,3.54.86,5.09.8a17.84,17.84,0,0,0,5.07-.85,4,4,0,0,0,1.62-6.93c-2.43-2.3-8.06-1.25-8-5.68,0-2,.2-4,.33-6.07s.69-4.14.25-6a.58.58,0,0,0-1-.14Z"/><path class="cls-4" d="M103,121.09c1.11.82,2.89.78,4.22.94s2.71.34,4.06.55,2.74.46,4.08.78,3,1.18,4.31.39a1,1,0,0,0,.45-1.1c-.55-1.5-2.29-1.79-3.67-2.1a45.64,45.64,0,0,0-4.63-.78c-1.48-.18-3-.24-4.46-.3s-3.12-.29-4.36.43a.69.69,0,0,0,0,1.19Z"/><g class="cls-5"><path class="cls-6" d="M124.64,143.42c-.53.24-1.09.44-1.59.64a21.72,21.72,0,0,1-5.63,1.29,30.07,30.07,0,0,1-11.43-1.2,35.6,35.6,0,0,1-10.21-4.89,28.46,28.46,0,0,1-4.3-3.67,31.41,31.41,0,0,1-3.21-4.53s0,0,0,0a38.14,38.14,0,0,0,4.08,3.64,43.67,43.67,0,0,0,4.2,3.22,33.79,33.79,0,0,0,9.49,4.51,29.25,29.25,0,0,0,10.56,1.18,21.77,21.77,0,0,0,5.19-1.07,23.15,23.15,0,0,0,3.09-1.5Z"/></g><path class="cls-2" d="M170.34,98.33l-1.88-5.73s-4.69-2.2-7-5.1A22.24,22.24,0,0,1,158.26,82c-.19-.46-.28-.74-.28-.74a4.64,4.64,0,0,1-.54.19h0c-1.22.35-4.17.87-6.09-1.7a4.85,4.85,0,0,1-1.18-3.54h0a3.32,3.32,0,0,1,.81-1.88,4.73,4.73,0,0,1-.84-.38,4.55,4.55,0,0,1-2.36-3,5.48,5.48,0,0,1,.57-3.61s0,0,0,0a5.89,5.89,0,0,1,.71-1.13,2.82,2.82,0,0,1-.61-.29,3,3,0,0,1-1.22-3.64c.9-3.36,7.31-4.28,7.31-4.28s-16.13-.27-19.72-2.2-1.1-3.73,5.1-4.83,23.31-2.21,26.76-.42c2.71,1.42,15.26,27,20.47,37.74Z"/><path class="cls-4" d="M154.53,58s-7.51-.12-13.42-.81A25.85,25.85,0,0,1,147.75,69a6,6,0,0,1,.58-1.68s0,0,0,0a5.89,5.89,0,0,1,.71-1.13,2.82,2.82,0,0,1-.61-.29,3,3,0,0,1-1.22-3.64C148.12,58.9,154.53,58,154.53,58Z"/><path class="cls-4" d="M166.67,50.53c1.53.81,6.21,9.31,10.92,18.5a19.84,19.84,0,0,0-2.43-10.61,20,20,0,0,0-1.88-14.92,18.44,18.44,0,0,0-6.78-6.88,19.71,19.71,0,0,0-2.35-6.93,18,18,0,0,0-11.89-8.86c-.09-.16-.16-.32-.24-.48a17.72,17.72,0,0,0-16.48-9.21A17.27,17.27,0,0,0,122.33,8a19,19,0,0,0-20.68,1.59,19,19,0,0,0-22.39,5.6c-.25,0-.49,0-.73,0a19,19,0,0,0-18.8,16,19,19,0,0,0-7.3,14.77,19,19,0,0,0-3.34,23.42,19,19,0,0,0,4.82,21.3c0,.18,0,.36,0,.55a19.05,19.05,0,0,0,10.23,16.88A19.06,19.06,0,0,0,81.5,119.33c.46,0,.92,0,1.37-.06a78.84,78.84,0,0,1-1.94-9.16,7.57,7.57,0,0,1-5.57.29C68.19,108.47,68.19,91.78,72.6,90c2.48-1,4.92,1.38,6.58,3.67,0,0,2.08.73,4.34-2.72A69.49,69.49,0,0,0,89,80.88c4-9.1,2.07-16.13,5-22.07s8.55-6.2,13.38-2.06,10.89,8.82,19,6.62,11.17-5.8,15.17-2.62,5.94,13.1,6.21,21.1-1.65,19-1.65,19a22,22,0,0,0,3.17-2.46,2.94,2.94,0,0,1,.55,1c1.24,3.31-1.52,11.72-4.41,15.58a5.66,5.66,0,0,1-3.18,2.28,80,80,0,0,1-3.92,9.57,17.23,17.23,0,0,0,7.25-2.58,18.71,18.71,0,0,0,7.43-9.3,17.35,17.35,0,0,0,6.83-2.54A19.12,19.12,0,0,0,168.4,98.6c.2-.12.41-.22.61-.35.37-.23.72-.49,1.06-.74l-1.61-4.91s-4.69-2.2-7-5.1A22.24,22.24,0,0,1,158.26,82c-.19-.46-.28-.74-.28-.74a4.64,4.64,0,0,1-.54.19h0a5.62,5.62,0,0,1-5.49-1,4.46,4.46,0,0,1-.6-.67,4.85,4.85,0,0,1-1.18-3.54h0a3.32,3.32,0,0,1,.81-1.88,4.73,4.73,0,0,1-.84-.38l-.37-.21,0,0-.37-.26h0a4.38,4.38,0,0,1-.77-.78h0a4.08,4.08,0,0,1-.82-1.74,5.48,5.48,0,0,1,.57-3.61s0,0,0,0a5.89,5.89,0,0,1,.71-1.13,2.82,2.82,0,0,1-.61-.29,3,3,0,0,1-1.22-3.64,3.71,3.71,0,0,1,1-1.63c-.41-1-.87-2-1.36-3-4.69-.29-10.14-.85-12.05-1.88-2.14-1.15-2.11-2.25-.44-3.18a10.45,10.45,0,0,1,2.12-.85l.17-.06.49-.13.38-.1.44-.11.56-.12.36-.08,1-.2.83-.13.21,0,1-.13h0C149.17,49.67,163.54,48.91,166.67,50.53Z"/><g class="cls-5"><path class="cls-6" d="M152,64.92a11.77,11.77,0,0,1,3.23-.5,12,12,0,0,1,1.7,0c.61.06,1.19.32,1.75,0a.56.56,0,0,0,.2-.76c-.35-.57-1-.61-1.63-.68a8.53,8.53,0,0,0-2,0,14.11,14.11,0,0,0-3.68.93,9.56,9.56,0,0,0-3.1,2,2.82,2.82,0,0,0,.61.29,5.89,5.89,0,0,0-.71,1.13A8.63,8.63,0,0,1,152,64.92Z"/><path class="cls-6" d="M157.76,71.31a5.86,5.86,0,0,0,1.62,0c.43-.12.59-.83.14-1a4,4,0,0,0-1.76-.17,13.75,13.75,0,0,0-1.71.17,9.26,9.26,0,0,0-3.26,1.18A8.75,8.75,0,0,0,150.12,74a3.6,3.6,0,0,0,.75.35,7.15,7.15,0,0,1,1.64-1.52l.12-.07a4.91,4.91,0,0,1,.63-.47,6.46,6.46,0,0,1,2.93-.92A11.72,11.72,0,0,1,157.76,71.31Z"/><path class="cls-6" d="M161.92,76.21c-.15-.54-1.09-.63-1.54-.65a6.61,6.61,0,0,0-3.23.72,5.41,5.41,0,0,0-2.52,2.46c-.2.41.41.78.63.36A5,5,0,0,1,157.49,77l.45.21a2.54,2.54,0,0,1,.95,1.12,2.35,2.35,0,0,1,.17.56h0V79a1,1,0,0,1,0,.25,1.93,1.93,0,0,1-.11.53,3,3,0,0,1-1.51,1.68,4.64,4.64,0,0,0,.54-.19s.09.28.28.74a3.86,3.86,0,0,0,1.44-1.53,3.25,3.25,0,0,0-.78-4,3.82,3.82,0,0,1,1.87,0c.26.07.5.25.78.21A.41.41,0,0,0,161.92,76.21Z"/></g><path class="cls-2" d="M226.39,143.64c-8.83-21.79-35.86-56.27-35.86-56.27s-2.48.55-10.76,5.24-12.14,8.83-12.14,8.83,1.66,5,4.42,13,8.55,26.48,8.55,26.48h0c-11.72-.41-41.71,8.51-49.88,12.75,0,0-1.77-2.41-2.09-2-7.3,9.41-17.51,10.32-20.8,10.85-13.52,2.21-20-5.33-20-5.33-.54.11-2.4-3.6-3.6-3.19l-2,5.6C69.62,164.2,41.13,175.64,34.94,179c-7.72,4.14-12.13,8.55-16.55,24.28S6,275.5,6.81,288.19s5,25.11,18.48,40.56C35.6,340.53,48.11,351.51,56.72,352h0c9.33,2.12,30.77,5.19,58.5,3.48,35.86-2.2,52.69-8.27,52.69-8.27s2.76-53.24,1.38-87.17c-.61-15-2.14-30.87-3.83-44.53,4.32-1.59,10.6-3.91,16.79-6.23,11-4.14,30.9-11.59,41.11-21.8S235.22,165.44,226.39,143.64Z"/><path class="cls-7" d="M51.06,213.92c.3,5.14,0,10.35.07,15.49q.07,16,.06,32,0,18.94,0,37.89,0,16.62.05,33.22,0,5.78,0,11.55a48.76,48.76,0,0,0,.29,6.51l.06.36c0,.3,0,.07,0,.16,0,.56.89.56.87,0,0-.23-.06.23,0,0a2.56,2.56,0,0,0,0-.27c0-.13,0-.27,0-.4,0-.36.07-.71.09-1.07,0-1.07,0-2.14.06-3.21.08-3.46,0-6.94,0-10.4q0-16,0-31.91,0-18.94,0-37.89,0-16.65-.11-33.29c0-6,0-12.07-.3-18.1l0-.66c-.06-.76-1.24-.77-1.2,0Z"/><path class="cls-7" d="M51.64,277.55a8.71,8.71,0,0,0-3,1.37,14.07,14.07,0,0,0-2.28,2.41,12.9,12.9,0,0,0-1.61,2.79,5.7,5.7,0,0,0-.63,3.18c.06.43.61.38.81.11a19,19,0,0,0,1.34-2.57,17.54,17.54,0,0,1,1.61-2.48,15.29,15.29,0,0,1,2-2.1c.73-.66,1.34-1.45,2.1-2.08.29-.24,0-.74-.36-.63Z"/><path class="cls-7" d="M51.48,273.67a5.18,5.18,0,0,0-3.19-1.32,13.49,13.49,0,0,0-3.7-.07A11.68,11.68,0,0,0,41,273.33c-1,.46-2.38,1.23-2.66,2.35a.57.57,0,0,0,.54.71,8.51,8.51,0,0,0,2.89-1.19,14,14,0,0,1,3.06-.92,11.11,11.11,0,0,1,3.1-.16,21.49,21.49,0,0,0,3.17.41.51.51,0,0,0,.35-.86Z"/><path class="cls-7" d="M171.33,111.09a19.48,19.48,0,0,0,2.39-2.33c.81-.81,1.61-1.62,2.45-2.39a48.73,48.73,0,0,1,5.82-4.59,50.93,50.93,0,0,1,6.08-3.5c1.09-.52,2.19-1,3.31-1.45a13.75,13.75,0,0,0,3.23-1.49.41.41,0,0,0-.2-.76c-2.3,0-4.68,1.32-6.72,2.29a50.29,50.29,0,0,0-6.42,3.68,52.88,52.88,0,0,0-5.68,4.44,37.79,37.79,0,0,0-2.71,2.66,12,12,0,0,0-2.17,2.81c-.17.37.2.91.62.63Z"/><path class="cls-7" d="M180.57,141a70.73,70.73,0,0,0,4.73,13q1.33,3.06,2.83,6c.54,1.09,1.11,2.18,1.68,3.27.44.82.74,1.87,1.7,2.15a.38.38,0,0,0,.45-.26c.27-.9-.38-1.65-.79-2.43-.54-1-1.08-2-1.6-3.09q-1.55-3.07-2.94-6.22c-1.85-4.21-3.24-8.62-5.22-12.77-.23-.48-.95-.13-.84.36Z"/><path class="cls-7" d="M160.87,187.44a136.68,136.68,0,0,0,1.9,14.38q.63,3.48,1.22,7c.2,1.16.39,2.33.57,3.5a4.89,4.89,0,0,0,.88,2.72.38.38,0,0,0,.59-.07,4.29,4.29,0,0,0,.11-2.63c-.17-1.17-.35-2.34-.55-3.51q-.57-3.5-1.19-7c-.85-4.84-1.75-9.68-2.61-14.52-.09-.51-.95-.4-.92.13Z"/><path class="cls-8" d="M134.37,388.93c-3.34.76-6.8.84-10.18,1.35l-.63.1a122.65,122.65,0,0,1,.15,14.09c0,1.09-.12,2.19-.2,3.28h-1.63c.06-1.18.12-2.35.17-3.53q.28-6.81.24-13.63c-2.78.46-5.54,1-8.27,1.69a.61.61,0,0,1-.32-1.17,66.5,66.5,0,0,1,8.67-2.25.6.6,0,0,1,.86-.16l.88-.16c3.37-.53,6.87-1,10.26-.47A.45.45,0,0,1,134.37,388.93Z"/><path class="cls-2" d="M81.5,162.81c0-.62,2.27-9.31,3.1-9.1s5.59,9.93,21.72,8.9,21.52-11,22.14-11,5,6,4.76,7-3.1,11.58-23.38,14.27S81.5,162.81,81.5,162.81Z"/></g></g></svg>